<svg xmlns="http://www.w3.org/2000/svg" width="384" height="79" viewBox="0 0 384 79">
  <g fill="#25A55F" transform="translate(6 6)">
    <g transform="translate(.399 .5)">
      <path d="M0.601068534,5.20926063 L25.845947,0.801424712 C28.9514677,0.400712356 31.9568104,0.400712356 34.9621531,0.801424712 L60.3072096,5.30943872 L60.3072096,40.8726603 L60.1068534,40.9728384 C50.8904692,55.3984832 33.9603722,64.5146893 32.7582351,65.2159359 C32.1571666,65.6166483 31.4559199,65.8170045 30.6544952,65.8170045 C29.9532486,65.8170045 29.1518239,65.6166483 28.3503992,65.316114 C27.4487964,64.8152236 8.01424712,54.5970585 0.801424712,40.8726603 L0.701246623,40.572126 L0.701246623,5.20926063 L0.601068534,5.20926063 Z M26.1464812,3.10552076 L3.00534267,7.21282241 L3.00534267,40.0712356 C9.91763081,52.894031 29.1518239,63.1121961 29.3521801,63.2123742 C30.0534267,63.5129084 30.9550295,63.6130865 31.4559199,63.3125522 L31.556098,63.2123742 C31.7564542,63.1121961 48.7867293,53.99599 57.9029354,40.0712356 L57.9029354,7.21282241 L34.6616188,3.10552076 C31.9568104,2.80498649 28.9514677,2.7048084 26.1464812,3.10552076 Z"/>
      <path d="M34.1607283,5.81032916 C33.2591255,5.71015107 32.2573447,5.60997298 31.2555638,5.60997298 C29.6527143,5.60997298 28.0498649,5.60997298 26.4470155,5.81032916 L5.81032916,9.41674037 L5.81032916,39.2698109 L5.71015107,39.369989 L5.81032916,39.4701671 L5.81032916,39.7707013 L6.21104152,40.3717699 C7.11264432,41.5739069 8.11442521,42.8762221 9.31656228,44.2787153 C10.5186993,45.6812086 11.9211926,46.9835237 13.3236858,48.2858389 C14.626001,49.487976 16.0284942,50.690113 17.6313437,51.9924282 C19.0338369,53.0943872 20.5365082,54.1963461 22.1393577,55.4986613 C23.642029,56.6006203 25.1447003,57.7025793 26.8477279,58.8045382 C27.6491526,59.3054287 28.3503992,59.8063191 28.8512896,60.1068534 L30.353961,60.8081 L31.556098,60.0066753 C38.1678519,55.6990175 47.4844142,48.7867293 54.2965242,39.8708794 L54.7974147,39.1696328 L54.7974147,9.41674037 L34.1607283,5.81032916 Z M19.8352616,9.41674037 L8.2146033,21.0373987 L8.2146033,11.4203021 L19.8352616,9.41674037 Z M8.31478139,30.6544952 L30.9550295,8.01424712 C31.0552076,8.01424712 31.1553857,8.01424712 31.2555638,8.01424712 C32.2573447,8.01424712 33.0587694,8.11442521 33.8601941,8.2146033 L36.4648244,8.71549374 L8.31478139,36.8655367 L8.31478139,30.6544952 Z M11.6206583,43.1767564 L44.6794277,10.117987 L49.9888664,11.0195898 L14.7261791,46.2822771 C13.6242201,45.1803181 12.5222611,44.1785372 11.6206583,43.1767564 Z M19.8352616,50.690113 L52.5934967,17.9318779 L52.5934967,24.1429194 L23.3414947,53.3949214 C22.0391796,52.4933186 20.9372206,51.5917158 19.8352616,50.690113 Z M52.5934967,38.5685643 C45.9817428,47.0837018 36.8655367,53.8958119 30.4541391,58.1032916 L30.353961,58.1032916 L30.2537829,58.1032916 C29.9532486,57.9029354 29.4523582,57.6024012 29.0516458,57.3018669 L52.5934967,33.760016 L52.5934967,38.5685643 L52.5934967,38.5685643 Z"/>
    </g>
    <path d="M4.2656673,7.92195357 L4.2656673,22.8517891 L0.372399527,22.8517891 L0.372399527,0.304690522 L4.2656673,0.304690522 L4.2656673,4.02868579 L7.98966257,4.02868579 L7.98966257,7.75268105 L11.7136578,7.75268105 L11.7136578,11.5105308 L15.4715076,11.5105308 L15.4715076,15.2345261 L19.0262304,15.2345261 L19.0262304,0.304690522 L22.9194981,0.304690522 L22.9194981,22.8517891 L19.0262304,22.8517891 L19.0262304,19.1277939 L15.3022351,19.1277939 L15.3022351,15.4037986 L11.5782398,15.4037986 L11.5782398,11.6459488 L7.82039006,11.6459488 L7.82039006,7.92195357 L4.2656673,7.92195357 Z M31.2807139,22.8517891 L31.2807139,0.304690522 L46.3121129,0.304690522 L46.3121129,4.1979583 L35.1739816,4.1979583 L35.1739816,7.75268105 L42.5881177,7.75268105 L42.5881177,11.6459488 L35.1739816,11.6459488 L35.1739816,18.9585214 L46.3121129,18.9585214 L46.3121129,22.8517891 L31.2807139,22.8517891 Z M62.1551737,22.8517891 L62.1551737,15.4037986 L58.3973239,15.4037986 L58.3973239,7.92195357 L54.6733287,7.92195357 L54.6733287,0.304690522 L58.5665965,0.304690522 L58.5665965,7.75268105 L62.3244462,7.75268105 L62.3244462,15.2345261 L65.879169,15.2345261 L65.879169,11.5105308 L69.6370187,11.5105308 L69.6370187,0.304690522 L73.5302865,0.304690522 L73.5302865,11.5105308 L77.2881363,11.5105308 L77.2881363,15.2345261 L80.842859,15.2345261 L80.842859,7.75268105 L84.6007088,7.75268105 L84.6007088,0.304690522 L88.4939766,0.304690522 L88.4939766,7.92195357 L84.7699813,7.92195357 L84.7699813,15.4037986 L81.0121316,15.4037986 L81.0121316,22.8517891 L77.1188638,22.8517891 L77.1188638,15.4037986 L73.361014,15.4037986 L73.361014,11.6459488 L69.8062913,11.6459488 L69.8062913,15.4037986 L66.0484415,15.4037986 L66.0484415,22.8517891 L62.1551737,22.8517891 L62.1551737,22.8517891 Z M96.8551923,22.8517891 L96.8551923,18.9585214 L107.993324,18.9585214 L107.993324,15.4037986 L104.303183,15.4037986 L104.303183,11.6459488 L100.579188,11.6459488 L100.579188,7.92195357 L96.8551923,7.92195357 L96.8551923,4.02868579 L100.579188,4.02868579 L100.579188,0.304690522 L111.886591,0.304690522 L111.886591,4.1979583 L100.74846,4.1979583 L100.74846,7.75268105 L104.438601,7.75268105 L104.438601,11.5105308 L108.162596,11.5105308 L108.162596,15.2345261 L111.886591,15.2345261 L111.886591,19.1277939 L108.162596,19.1277939 L108.162596,22.8517891 L96.8551923,22.8517891 L96.8551923,22.8517891 Z M123.971802,22.8517891 L123.971802,19.1277939 L120.247807,19.1277939 L120.247807,4.02868579 L123.971802,4.02868579 L123.971802,0.304690522 L135.279206,0.304690522 L135.279206,4.1979583 L124.141075,4.1979583 L124.141075,18.9585214 L135.279206,18.9585214 L135.279206,22.8517891 L123.971802,22.8517891 L123.971802,22.8517891 Z M143.640422,22.8517891 L143.640422,0.304690522 L147.53369,0.304690522 L147.53369,18.9585214 L158.671821,18.9585214 L158.671821,22.8517891 L143.640422,22.8517891 Z M167.033037,22.8517891 L167.033037,0.304690522 L182.064436,0.304690522 L182.064436,4.1979583 L170.926305,4.1979583 L170.926305,7.75268105 L178.340441,7.75268105 L178.340441,11.6459488 L170.926305,11.6459488 L170.926305,18.9585214 L182.064436,18.9585214 L182.064436,22.8517891 L167.033037,22.8517891 Z M198.042915,7.92195357 L198.042915,11.5105308 L201.597637,11.5105308 L201.597637,7.92195357 L198.042915,7.92195357 Z M190.425652,22.8517891 L190.425652,15.2345261 L194.149647,15.2345261 L194.149647,7.75268105 L197.873642,7.75268105 L197.873642,0.304690522 L201.76691,0.304690522 L201.76691,7.75268105 L205.490905,7.75268105 L205.490905,15.2345261 L209.2149,15.2345261 L209.2149,22.8517891 L205.321633,22.8517891 L205.321633,15.4037986 L194.318919,15.4037986 L194.318919,22.8517891 L190.425652,22.8517891 L190.425652,22.8517891 Z M221.469384,7.92195357 L221.469384,22.8517891 L217.576116,22.8517891 L217.576116,0.304690522 L221.469384,0.304690522 L221.469384,4.02868579 L225.193379,4.02868579 L225.193379,7.75268105 L228.917374,7.75268105 L228.917374,11.5105308 L232.675224,11.5105308 L232.675224,15.2345261 L236.229947,15.2345261 L236.229947,0.304690522 L240.123215,0.304690522 L240.123215,22.8517891 L236.229947,22.8517891 L236.229947,19.1277939 L232.505952,19.1277939 L232.505952,15.4037986 L228.781956,15.4037986 L228.781956,11.6459488 L225.024107,11.6459488 L225.024107,7.92195357 L221.469384,7.92195357 Z M248.48443,22.8517891 L248.48443,0.304690522 L263.51583,0.304690522 L263.51583,4.1979583 L252.377698,4.1979583 L252.377698,7.75268105 L259.791834,7.75268105 L259.791834,11.6459488 L252.377698,11.6459488 L252.377698,18.9585214 L263.51583,18.9585214 L263.51583,22.8517891 L248.48443,22.8517891 Z M283.049031,4.1979583 L275.770313,4.1979583 L275.770313,11.5105308 L283.049031,11.5105308 L283.049031,4.1979583 Z M275.770313,15.4037986 L275.770313,22.8517891 L271.877045,22.8517891 L271.877045,0.304690522 L283.218304,0.304690522 L283.218304,4.02868579 L286.942299,4.02868579 L286.942299,11.6459488 L283.218304,11.6459488 L283.218304,15.2345261 L286.942299,15.2345261 L286.942299,18.9585214 L290.666294,18.9585214 L290.666294,22.8517891 L286.773026,22.8517891 L286.773026,19.1277939 L283.049031,19.1277939 L283.049031,15.4037986 L275.770313,15.4037986 L275.770313,15.4037986 Z" transform="translate(80.628 21.695)"/>
  </g>
</svg>
